<?xml version="1.0" encoding="UTF-8" standalone="no"?>
<svg width="201px" height="201px" viewBox="0 0 201 201" version="1.1" xmlns="http://www.w3.org/2000/svg" xmlns:xlink="http://www.w3.org/1999/xlink" xmlns:sketch="http://www.bohemiancoding.com/sketch/ns">
    <!-- Generator: Sketch 3.3.2 (12043) - http://www.bohemiancoding.com/sketch -->
    <title>DataResident</title>
    <desc>Created with Sketch.</desc>
    <defs></defs>
    <g id="Page-1" stroke="none" stroke-width="1" fill="none" fill-rule="evenodd" sketch:type="MSPage">
        <g id="Data-Planet-Tatooine" sketch:type="MSArtboardGroup" transform="translate(-616.000000, -671.000000)">
            <g id="DataResident" sketch:type="MSLayerGroup" transform="translate(617.000000, 672.000000)">
                <g id="2nd" sketch:type="MSShapeGroup">
                    <path d="M87.669907,0.00528405878 C38.4460397,6.004016 0.3000084,48.349428 0.3000084,99.6957022 C0.3000084,151.098949 38.5307384,193.481348 87.8338005,199.405954 L87.8338005,199.405954 M112.212665,199.325796 C161.201879,193.10894 199.097575,150.873218 199.097575,99.6957022 C199.097575,48.4933083 161.236478,6.1901199 112.212665,0.0052840367" id="Oval-45-Copy-3" stroke="#FEFEFE" opacity="0.302763526"></path>
                    <path d="M105.785935,17.8429615 C103.450384,17.6392721 101.086606,17.5353095 98.6987916,17.5353095" id="Oval-45-Copy-2" stroke="#FFE81F" opacity="0.424032183"></path>
                </g>
                <g id="1st" transform="translate(15.000000, 14.000000)" stroke="#FEFEFE" sketch:type="MSShapeGroup">
                    <ellipse id="Oval-45" cx="84.6987916" cy="85.6957022" rx="84.3383615" ry="85.2033703"></ellipse>
                    <ellipse id="Oval-45-Copy" cx="84.6987916" cy="85.6957022" rx="78.3141928" ry="79.1174153"></ellipse>
                </g>
                <path d="M101.632592,30.5329374 L101.876888,23.5372016" id="Line" stroke="#FFE81F" stroke-linecap="square" sketch:type="MSShapeGroup"></path>
                <path d="M99.5,168.5 L99.5,175.5 M95.2368489,168.368282 L94.7485536,175.35123 M90.9293831,167.965654 L90.0762977,174.913477 M86.7156193,167.30536 L85.3799564,174.176751 M82.4915059,166.370892 L80.7980526,173.162962 M78.3924085,165.192252 L76.2292896,171.849648 M74.3170522,163.740413 L71.8084765,170.275476 M70.3961241,162.061686 L67.4377963,168.405841 M66.5863095,160.144103 L63.1926422,166.26644 M62.8506103,157.962148 L59.1411755,163.898484 M59.3085233,155.586139 L55.1940265,161.249258 M55.8727303,152.957129 L51.4674876,158.397151 M52.6532443,150.159505 L47.8792557,155.278981 M49.5705561,147.124147 L44.5351775,151.986756 M46.723547,143.948248 L41.3612359,148.447761 M44.0416951,140.55354 L38.4512465,144.766245 M41.6112687,137.048567 L35.7405747,140.86104 M39.4018581,133.400237 L33.2795202,136.793905 M37.3955869,129.567321 L31.1040286,132.635919 M35.6565101,125.672786 L29.1662231,128.295032 M34.1417934,121.62038 L27.5231634,123.899357 M32.8999918,117.539973 L26.1385111,119.351706 M31.900283,113.330822 L25.0532498,114.786204 M31.1749948,109.127756 L24.2431183,110.101968 M30.710566,104.887931 L23.7276176,105.376227 M30.5082348,100.566423 L23.509301,100.68859 M30.5741019,96.3017475 L23.5836951,95.9353959 M30.9100389,91.9885687 L23.9483856,91.2568695 M31.505181,87.7651108 L24.6115268,86.5495736 M32.3741846,83.5270453 L25.5535941,81.952388 M33.489382,79.4102343 L26.7952487,77.3636324 M34.8779969,75.3129029 L28.3001486,72.9187619 M36.4959735,71.3665162 L30.1011553,68.5193597 M38.354493,67.5275444 L32.1738599,64.2412435 M40.47839,63.7585355 L34.4782189,60.1532689 M42.7994145,60.1801788 L37.0653502,56.1651438 M45.3749534,56.704123 L39.8588781,52.3944926 M48.1225257,53.441817 L42.9205119,48.7579027 M51.1098278,50.3125363 L46.1600804,45.3627889 M54.241383,47.4168204 L49.6489698,42.1338534 M57.5457316,44.7199546 L53.3330264,39.129506 M61.0612188,42.1985028 L57.1468685,36.3952397 M64.6749924,39.9330153 L61.1749924,33.8708375 M68.4764095,37.8676842 L65.298476,31.6306385 M72.3436237,36.0686717 L69.6085058,29.6251377 M76.3721108,34.4914401 L73.9779698,27.9135917 M80.4328551,33.1867728 L78.5033936,26.4579409 M84.5663988,32.1352836 L83.111017,25.2882504 M88.8174026,31.3319523 L87.7223613,24.4181339 M93.0495482,30.8021037 L92.439458,23.8287408 M97.3674082,30.5329374 L97.1231117,23.5372016 M105.950452,30.8021037 L106.560542,23.8287408 M110.182597,31.3319523 L111.277639,24.4181339 M114.433601,32.1352836 L115.888983,25.2882504 M118.567145,33.1867728 L120.496606,26.4579409 M122.627889,34.4914401 L125.02203,27.9135917 M126.656376,36.0686717 L129.391494,29.6251377 M130.523591,37.8676842 L133.701524,31.6306385 M134.325008,39.9330153 L137.825008,33.8708375 M137.938781,42.1985028 L141.853132,36.3952397 M141.454268,44.7199546 L145.666974,39.129506 M144.758617,47.4168204 L149.35103,42.1338534 M147.890172,50.3125363 L152.83992,45.3627889 M150.877474,53.441817 L156.079488,48.7579027 M153.625047,56.704123 L159.141122,52.3944926 M156.200586,60.1801788 L161.93465,56.1651438 M158.52161,63.7585355 L164.521781,60.1532689 M160.645507,67.5275444 L166.82614,64.2412435 M162.504027,71.3665162 L168.898845,68.5193597 M164.122003,75.3129029 L170.699851,72.9187619 M165.510618,79.4102343 L172.204751,77.3636324 M166.625815,83.5270453 L173.446406,81.952388 M167.494819,87.7651108 L174.388473,86.5495736 M168.089961,91.9885687 L175.051614,91.2568695 M168.425898,96.3017475 L175.416305,95.9353959 M168.491765,100.566423 L175.490699,100.68859 M168.289434,104.887931 L175.272382,105.376227 M167.825005,109.127756 L174.756882,110.101968 M167.099717,113.330822 L173.94675,114.786204 M166.100008,117.539973 L172.861489,119.351706 M164.858207,121.62038 L171.476837,123.899357 M163.34349,125.672786 L169.833777,128.295032 M161.604413,129.567321 L167.895971,132.635919 M159.598142,133.400237 L165.72048,136.793905 M157.388731,137.048567 L163.259425,140.86104 M154.958305,140.55354 L160.548753,144.766245 M152.276453,143.948248 L157.638764,148.447761 M149.429444,147.124147 L154.464822,151.986756 M146.346756,150.159505 L151.120744,155.278981 M143.12727,152.957129 L147.532512,158.397151 M139.691477,155.586139 L143.805973,161.249258 M136.14939,157.962148 L139.858825,163.898484 M132.41369,160.144103 L135.807358,166.26644 M128.603876,162.061686 L131.562204,168.405841 M124.682948,163.740413 L127.191523,170.275476 M120.607591,165.192252 L122.77071,171.849648 M116.508494,166.370892 L118.201947,173.162962 M112.284381,167.30536 L113.620044,174.176751 M108.070617,167.965654 L108.923702,174.913477 M103.763151,168.368282 L104.251446,175.35123" id="LineGrey" stroke="#797979" stroke-linecap="square" sketch:type="MSShapeGroup"></path>
            </g>
        </g>
    </g>
</svg>