<?xml version="1.0" encoding="UTF-8" standalone="no"?>
<svg width="201px" height="201px" viewBox="0 0 201 201" version="1.1" xmlns="http://www.w3.org/2000/svg" xmlns:xlink="http://www.w3.org/1999/xlink" xmlns:sketch="http://www.bohemiancoding.com/sketch/ns">
    <!-- Generator: Sketch 3.3.2 (12043) - http://www.bohemiancoding.com/sketch -->
    <title>DataResident</title>
    <desc>Created with Sketch.</desc>
    <defs></defs>
    <g id="Page-1" stroke="none" stroke-width="1" fill="none" fill-rule="evenodd" sketch:type="MSPage">
        <g id="Data-Planet-Endor" sketch:type="MSArtboardGroup" transform="translate(-676.000000, -671.000000)">
            <g id="DataResident" sketch:type="MSLayerGroup" transform="translate(677.000000, 672.000000)">
                <g id="2nd" sketch:type="MSShapeGroup">
                    <path d="M87.669907,0.00528405878 C38.4460397,6.004016 0.3000084,48.349428 0.3000084,99.6957022 C0.3000084,151.098949 38.5307384,193.481348 87.8338005,199.405954 L87.8338005,199.405954 M112.212665,199.325796 C161.201879,193.10894 199.097575,150.873218 199.097575,99.6957022 C199.097575,48.4933083 161.236478,6.1901199 112.212665,0.0052840367" id="Oval-45-Copy-3" stroke="#FEFEFE" opacity="0.302763526"></path>
                    <path d="M134.262514,25.303198 C123.772755,20.320391 112.057717,17.5353095 99.6987916,17.5353095" id="Oval-45-Copy-2" stroke="#FFE81F" opacity="0.424032183"></path>
                </g>
                <g id="1st" transform="translate(15.000000, 14.000000)" stroke="#FEFEFE" sketch:type="MSShapeGroup">
                    <ellipse id="Oval-45" cx="84.6987916" cy="85.6957022" rx="84.3383615" ry="85.2033703"></ellipse>
                    <ellipse id="Oval-45-Copy" cx="84.6987916" cy="85.6957022" rx="78.3141928" ry="79.1174153"></ellipse>
                </g>
                <path d="M101.632592,30.5329374 L101.876888,23.5372016 M105.950452,30.8021037 L106.560542,23.8287408 M110.182597,31.3319523 L111.277639,24.4181339 M114.433601,32.1352836 L115.888983,25.2882504 M118.567145,33.1867728 L120.496606,26.4579409 M122.627889,34.4914401 L125.02203,27.9135917 M126.656376,36.0686717 L129.391494,29.6251377" id="Line" stroke="#FFE81F" stroke-linecap="square" sketch:type="MSShapeGroup"></path>
            </g>
        </g>
    </g>
</svg>