<?xml version="1.0" encoding="UTF-8" standalone="no"?>
<svg width="171px" height="171px" viewBox="0 0 171 171" version="1.1" xmlns="http://www.w3.org/2000/svg" xmlns:xlink="http://www.w3.org/1999/xlink" xmlns:sketch="http://www.bohemiancoding.com/sketch/ns">
    <!-- Generator: Sketch 3.3.2 (12043) - http://www.bohemiancoding.com/sketch -->
    <title>DataResident Copy</title>
    <desc>Created with Sketch.</desc>
    <defs></defs>
    <g id="Page-1" stroke="none" stroke-width="1" fill="none" fill-rule="evenodd" sketch:type="MSPage">
        <g id="Data-Planet-Naboo" sketch:type="MSArtboardGroup" transform="translate(-931.000000, -686.000000)">
            <g id="DataResident-Copy" sketch:type="MSLayerGroup" transform="translate(932.000000, 687.000000)">
                <g id="2nd" sketch:type="MSShapeGroup">
                    <path d="M74.5194209,0.00449144996 C32.6791337,5.1034136 0.25500714,41.0970138 0.25500714,84.7413469 C0.25500714,128.434107 32.7511276,164.459146 74.6587305,169.495061 L74.6587305,169.495061 M95.3807653,169.426926 C137.021597,164.142599 169.232939,128.242235 169.232939,84.7413469 C169.232939,41.2193121 137.051006,5.26160192 95.3807656,0.0044914312" id="Oval-45-Copy-3" stroke="#FEFEFE" opacity="0.302763526"></path>
                    <path d="M153.891495,82.9505266 C152.95115,45.1849139 122.352745,14.8621189 84.7439728,14.8621189" id="Oval-45-Copy-2" stroke="#FFE81F" opacity="0.45"></path>
                </g>
                <g id="1st" transform="translate(12.750000, 11.900000)" stroke="#FEFEFE" sketch:type="MSShapeGroup">
                    <ellipse id="Oval-45" cx="71.9939728" cy="72.8413469" rx="71.6876073" ry="72.4228648"></ellipse>
                    <ellipse id="Oval-45-Copy" cx="71.9939728" cy="72.8413469" rx="66.5670639" ry="67.249803"></ellipse>
                </g>
                <g id="Lines" transform="translate(19.000000, 19.000000)" stroke-linecap="square" sketch:type="MSShapeGroup">
                    <path d="M67.387703,6.95299681 L67.595355,1.00662139 M71.057884,7.18178816 L71.5764607,1.2544297 M74.6552078,7.63215946 L75.5859929,1.75541384 M78.268561,8.31499107 L79.5056356,2.49501285 M81.7820731,9.20875684 L83.4221154,3.48924975 M85.2337058,10.3177241 L87.2687257,4.72655297 M88.6579199,11.6583709 L90.9827701,6.18136703 M91.9450519,13.1875315 L94.6462954,7.88604272 M95.1762565,14.943063 L98.1512565,9.79021186 M98.247964,16.8687273 L101.575162,11.9359538 M101.236128,19.0119614 L104.816928,14.2600801 M104.044824,21.3042974 L107.948376,16.8137754 M106.706646,23.7656559 L110.913932,19.5583705 M109.245853,26.4255444 L113.667565,22.4442173 M111.58129,29.1985045 L116.269954,25.5353187 M113.770498,32.153152 L118.644452,28.7403722 M115.743369,35.1947551 L120.843514,32.1302786 M117.548681,38.3984127 L122.802219,35.6050569 M119.128423,41.6615387 L124.564018,39.2414557 M120.503703,45.0159675 L126.094874,42.9809476 M121.684025,48.4986992 L127.374039,46.7590875 M122.631943,51.9979885 L128.429445,50.6595298 M123.370596,55.6003442 L129.230202,54.5671376 M123.876467,59.1902834 L129.793872,58.5683391 M124.162013,62.8564854 L130.103859,62.5450865" id="Line" stroke="#FFE81F"></path>
                    <path d="M65.5,124.121037 L65.5,130.068212 M61.8780421,124.009129 L61.4631882,129.941817 M58.2184346,123.667059 L57.4936563,129.569904 M54.6384359,123.106075 L53.5036615,128.943984 M51.0496443,122.312155 L49.6108924,128.082673 M47.5670658,121.310786 L45.7292877,126.966886 M44.1046576,120.077309 L41.9733807,125.629475 M40.7734512,118.651069 L38.2600664,124.04104 M37.5366463,117.021896 L34.6533987,122.223413 M34.3628097,115.168115 L31.2112871,120.211606 M31.3534652,113.149467 L27.8578035,117.960833 M28.4344278,110.91587 L24.6917493,115.537693 M25.699164,108.539018 L21.6432004,112.888507 M23.0801232,105.960189 L18.8020835,110.091444 M20.6613144,103.261956 L16.1055141,107.084727 M18.3828226,100.377825 L13.6331975,103.956924 M16.317941,97.4000116 L11.3302204,100.639075 M14.4408337,94.300404 L9.2393173,97.1836516 M12.7363128,91.0439724 L7.3910274,93.6510423 M11.2587994,87.7351893 L5.74467483,89.9630402 M9.97190153,84.2922793 L4.34873714,86.2284901 M8.91687138,80.8255801 L3.1723415,82.3648222 M8.06752236,77.2495005 L2.25030745,78.4859877 M7.45132004,73.678591 L1.56202258,74.5062778 M7.05674302,70.0764509 L1.12405509,70.4913049 M6.8848432,66.4049129 L0.938574027,66.5087054 M6.94080358,62.7816599 L1.00177903,62.4704088 M7.22621447,59.1171987 L1.31161877,58.4955496 M7.7318451,55.5289639 L1.8750211,54.4962478 M8.47014743,51.9283187 L2.67539819,50.5904954 M9.41761516,48.4306908 L3.73030347,46.6919051 M10.5973774,44.9496127 L5.00886102,42.915559 M11.9720045,41.5967766 L6.53898983,39.1778426 M13.5509961,38.3351999 L8.29995225,35.5431704 M15.3554513,35.1330634 L10.2577274,32.0700419 M17.3273854,32.0929044 L12.4557449,28.681745 M19.5155541,29.1396598 L14.8291163,25.4782133 M21.8498817,26.3680163 L17.4302694,22.3885795 M24.3878829,23.7093907 L20.1825951,19.5041029 M27.0484409,21.2492008 L23.1467431,16.7608109 M29.8558037,18.9579532 L26.2767045,14.2083281 M32.8425491,16.8157368 L29.516931,11.8853053 M35.9127982,14.8909867 L32.9392107,9.74058214 M39.1424685,13.1362888 L36.4425076,7.83731709 M42.4280398,11.6078542 L40.1042935,6.13345079 M45.8506281,10.2678439 L43.8165744,4.67932746 M49.3006219,9.1594032 L47.6613584,3.44261172 M52.8124659,8.26606178 L51.5759787,2.44884687 M56.4241034,7.58355438 L55.4937603,1.70959902 M60.0197192,7.13339691 L59.5013888,1.20885276 M63.6881577,6.9047142 L63.4806042,0.961162105 M124.115157,66.4049129 L130.061426,66.5087054 M123.943257,70.0764509 L129.875945,70.4913049 M123.54868,73.678591 L129.437977,74.5062778 M122.932478,77.2495005 L128.749693,78.4859877 M122.083129,80.8255801 L127.827659,82.3648222 M121.028098,84.2922793 L126.651263,86.2284901 M119.741201,87.7351893 L125.255325,89.9630402 M118.263687,91.0439724 L123.608973,93.6510423 M116.559166,94.300404 L121.760683,97.1836516 M114.682059,97.4000116 L119.66978,100.639075 M112.617177,100.377825 L117.366803,103.956924 M110.338686,103.261956 L114.894486,107.084727 M107.919877,105.960189 L112.197916,110.091444 M105.300836,108.539018 L109.3568,112.888507 M102.565572,110.91587 L106.308251,115.537693 M99.6465348,113.149467 L103.142197,117.960833 M96.6371903,115.168115 L99.7887129,120.211606 M93.4633537,117.021896 L96.3466013,122.223413 M90.2265488,118.651069 L92.7399336,124.04104 M86.8953424,120.077309 L89.0266193,125.629475 M83.4329342,121.310786 L85.2707123,126.966886 M79.9503557,122.312155 L81.3891076,128.082673 M76.3615641,123.106075 L77.4963385,128.943984 M72.7815654,123.667059 L73.5063437,129.569904 M69.1219579,124.009129 L69.5368118,129.941817" id="LineGrey" stroke="#797979"></path>
                </g>
            </g>
        </g>
    </g>
</svg>