<svg width="233px" height="100px" viewBox="0 0 233 100" version="1.1" xmlns="http://www.w3.org/2000/svg" xmlns:xlink="http://www.w3.org/1999/xlink" xmlns:sketch="http://www.bohemiancoding.com/sketch/ns">
    <g id="Page-1" stroke="none" stroke-width="1" fill="none" fill-rule="evenodd" sketch:type="MSPage">
        <g id="Data2" sketch:type="MSArtboardGroup" transform="translate(-604.000000, -70.000000)" fill="white">
            <g id="Logo" sketch:type="MSLayerGroup" transform="translate(604.000000, 70.000000)">
                <path d="M43.8589528,54.2882784 L47.0352264,63.614652 C48.7537846,68.6578755 50.2880676,72.6912088 50.4880959,72.6912088 C50.4913931,72.6912088 50.4943239,72.6897436 50.4968884,72.6875458 C50.7166997,72.4934066 56.9336965,54.4417582 56.9336965,54.4417582 L68.9830204,54.4417582 L54.4461651,96.7930403 L46.0713538,96.7930403 C46.0713538,96.7930403 37.1323601,70.9794872 37.1689953,70.8813187 L27.8380047,96.4677656 L19.5474544,96.4677656 L5.19377516,54.2882784 L17.1844827,54.2959707 C17.1844827,54.2959707 23.7528113,72.9117216 23.8403695,72.9117216 C23.8407358,72.9117216 23.8407358,72.9113553 23.8411022,72.910989 L30.3951431,54.2879121 L43.8589528,54.2879121 L43.8589528,54.2882784 Z M1.10015566,51.3553114 L2.41938994,55.2322344 L16.7730692,97.4113553 L17.448989,99.3981685 L19.5478208,99.3981685 L27.8383711,99.3981685 L29.8892107,99.3981685 L30.5918742,97.4714286 L37.0708129,79.7058608 C37.6291336,81.3300366 38.2325157,83.0805861 38.8358978,84.8296703 C41.0666164,91.2967033 43.3020975,97.7516484 43.3020975,97.7516484 L43.984978,99.7234432 L46.0717201,99.7234432 L54.4465314,99.7234432 L56.5391352,99.7234432 L57.2183522,97.7443223 L71.7552075,55.3934066 L73.0876305,51.5113553 L68.9830204,51.5113553 L56.9336965,51.5113553 L54.8432909,51.5113553 L54.1626085,53.4879121 C53.073077,56.6509158 51.6270849,60.8252747 50.3906462,64.3582418 C50.204173,63.8223443 50.0100063,63.2589744 49.8092453,62.6692308 L46.6333381,53.3432234 L45.9570519,51.3575092 L43.8589528,51.3575092 L30.3955094,51.3575092 L28.3197579,51.3575092 L27.6306494,53.3153846 L23.8011698,64.1967033 C22.5361557,60.6413919 21.0696478,56.4981685 19.9486101,53.3208791 L19.2591352,51.367033 L17.1866808,51.3655678 L5.19597327,51.3578755 L1.10015566,51.3553114 L1.10015566,51.3553114 Z" id="Shape" sketch:type="MSShapeGroup"></path>
                <path d="M229.430997,54.1238095 L229.40352,65.2245421 C229.40352,65.2245421 217.444686,65.1846154 211.364704,65.1846154 C209.342074,65.1846154 207.970085,65.1893773 207.904874,65.2010989 C206.857107,65.3919414 206.18998,67.6194139 206.487091,68.5970696 C206.633266,69.0915751 207.729392,70.7069597 208.916006,72.1904762 C210.098958,73.674359 212.044654,76.1029304 213.231635,77.5857143 C216.279319,81.3882784 216.697327,82.1388278 216.979052,84.3223443 C217.436992,87.8684982 215.759465,91.7069597 212.645472,94.2380952 C209.524884,96.7765568 209.661533,96.7945055 186.494153,96.7945055 L185.476792,96.7945055 C171.386887,96.7908425 163.935283,96.6739927 162.850514,96.4322344 C160.923502,95.996337 157.85347,93.4908425 149.738769,85.7069597 C146.820041,82.9098901 144.130283,80.4608059 143.992168,80.4600733 C143.988505,80.4600733 143.986673,80.4622711 143.986673,80.4659341 L143.891055,96.7952381 L130.739377,96.7369963 L130.658414,54.6197802 L147.243544,54.6197802 L159.988937,54.6197802 C168.829016,54.9388278 174.811547,63.7443223 173.620903,69.359707 C173.349802,70.6340659 172.66106,72.4809524 172.089184,73.4622711 C170.913193,75.4769231 167.920096,78.0630037 165.490814,79.1732601 C164.593618,79.5791209 163.860914,80.0516484 163.860914,80.2201465 C163.860914,80.8465201 166.814079,83.7545788 167.920096,84.2164835 C168.864918,84.6117216 171.61659,84.6996337 183.750175,84.6996337 C185.172354,84.6996337 186.464112,84.7003663 187.636439,84.7003663 C199.833403,84.7003663 199.219763,84.6124542 200.16202,82.5974359 C200.821821,81.1945055 200.319918,80.3556777 195.678236,75.1285714 C189.797917,69.2783883 190.413755,66.4761905 190.373456,64.4065934 C190.289561,61.9267399 192.242585,54.1249084 202.394204,54.1249084 L229.430997,54.1238095 L229.430997,54.1238095 Z M150.639629,73.581685 C156.270462,73.581685 157.413481,73.4941392 158.611819,72.9736264 C162.656347,71.2153846 162.872495,66.0216117 158.992825,63.7168498 C158.143255,63.210989 157.051159,63.1274725 150.947731,63.0941392 L143.884827,63.0571429 C143.943077,63.1120879 143.86248,73.156044 143.86248,73.156044 C143.86248,73.156044 145.631594,73.581685 150.639629,73.581685 L150.639629,73.581685 Z M232.368775,51.1934066 L229.430264,51.1934066 L202.393472,51.1934066 C196.520113,51.1934066 193.045995,53.5113553 191.166242,55.456044 C188.1083,58.618315 187.388052,62.6003663 187.443371,64.4776557 C187.446302,64.6340659 187.44447,64.7945055 187.442638,64.9619048 C187.415895,68.0128205 187.865409,71.4666667 193.5457,77.1399267 C194.668569,78.4043956 196.547223,80.5241758 197.257214,81.5776557 C195.704613,81.7684982 191.769258,81.7684982 187.636072,81.7684982 L185.880513,81.7684982 L183.749808,81.7677656 C176.457934,81.7677656 170.309079,81.7468864 169.048827,81.4981685 C168.872612,81.3831502 168.625324,81.185348 168.353491,80.9494505 C170.872895,79.3981685 173.420142,76.9937729 174.619579,74.9377289 C175.34752,73.6875458 176.150198,71.5520147 176.487242,69.9677656 C177.234601,66.4421245 176.001825,62.189011 173.189706,58.5875458 C169.908656,54.3857143 165.135453,51.8717949 160.09408,51.6901099 L160.040959,51.6879121 L159.987838,51.6879121 L147.242445,51.6879121 L130.657314,51.6879121 L127.720635,51.6879121 L127.726497,54.6245421 L127.807461,96.7413919 L127.813322,99.6531136 L130.725456,99.6659341 L143.877134,99.7241758 L146.803555,99.7369963 L146.820774,96.810989 L146.877558,87.0285714 C147.146094,87.2835165 147.423789,87.5483516 147.708811,87.8216117 C156.584426,96.3344322 159.563602,98.6930403 162.202437,99.2897436 C162.927448,99.4512821 164.126885,99.7190476 185.474228,99.7249084 L186.492321,99.7249084 C198.049267,99.7249084 203.850088,99.7249084 207.300759,99.3915751 C211.253333,99.0095238 212.524575,98.1131868 214.43034,96.5619048 L214.493719,96.5102564 C218.408192,93.3282051 220.473686,88.5139194 219.884591,83.9461538 C219.500654,80.9754579 218.714462,79.7413919 215.51694,75.7527473 L214.566623,74.5659341 C213.452912,73.174359 212.1073,71.4937729 211.205341,70.3626374 C210.477766,69.4527473 209.906256,68.6450549 209.561519,68.1161172 C210.01433,68.1150183 210.602325,68.1142857 211.363239,68.1142857 C217.369583,68.1142857 229.273099,68.1538462 229.39253,68.1545788 L232.326278,68.1641026 L232.333605,65.2307692 L232.361082,54.1296703 L232.368775,51.1934066 L232.368775,51.1934066 Z M146.811615,70.5443223 C146.816377,69.8040293 146.820774,68.9739927 146.825536,68.1424908 C146.8292,67.4098901 146.832497,66.6758242 146.833596,66.0032967 L150.931978,66.0245421 C153.287256,66.0373626 156.831347,66.0567766 157.522288,66.2527473 C158.404097,66.7879121 158.896108,67.6153846 158.842621,68.4725275 C158.813313,68.9355311 158.592769,69.7868132 157.442789,70.2860806 C156.801673,70.5644689 155.77955,70.6512821 150.639629,70.6512821 C149.009362,70.6512821 147.751675,70.6040293 146.811615,70.5443223 L146.811615,70.5443223 L146.811615,70.5443223 Z" id="Shape" sketch:type="MSShapeGroup"></path>
                <path d="M104.010321,53.9512821 L118.770651,96.4128205 L106.743308,96.4677656 L104.746689,90.0904762 L83.2418145,89.9179487 L81.3441101,96.3029304 L69.4376635,96.178022 L84.0111541,53.9695971 L104.010321,53.9512821 L104.010321,53.9512821 Z M94.3382563,60.1769231 C94.3078491,60.2989011 92.4537406,65.385348 90.5934041,70.4714286 C88.7176808,75.5996337 86.8357296,80.7278388 86.8097186,80.7677656 C86.8097186,80.7681319 86.8093522,80.7681319 86.8097186,80.7681319 L86.8097186,80.7681319 C86.8097186,80.7681319 86.8097186,80.7681319 86.8097186,80.7677656 C86.8595425,80.7531136 93.5198255,80.7384615 97.7885613,80.7384615 C99.7862799,80.7384615 101.259748,80.7417582 101.287225,80.7490842 C101.287591,80.7505495 101.287591,80.7509158 101.287591,80.7509158 L101.287591,80.7498168 C101.287591,80.7498168 101.287591,80.7498168 101.287225,80.7490842 C101.212489,80.5553114 94.3598711,60.4245421 94.3382563,60.1769231 C94.3386226,60.1754579 94.3386226,60.1747253 94.3386226,60.1747253 L94.3386226,60.1747253 C94.3382563,60.1747253 94.3382563,60.1754579 94.3382563,60.1769231 L94.3382563,60.1769231 Z M106.093766,51.0190476 L104.008123,51.0208791 L84.008956,51.0395604 L81.9222138,51.0413919 L81.2411651,53.0142857 L66.6676745,95.2227106 L65.3403805,99.0666667 L69.4076226,99.1087912 L81.3140692,99.2336996 L83.524272,99.2567766 L84.1540314,97.1388278 L85.4238082,92.867033 L102.588874,93.0043956 L103.947308,97.3443223 L104.59392,99.4095238 L106.757962,99.4 L118.784939,99.3450549 L122.886252,99.3260073 L121.539541,95.4527473 L106.779211,52.9912088 L106.093766,51.0190476 L106.093766,51.0190476 Z M91.0282642,77.810989 C91.5832877,76.2985348 92.3310126,74.2542125 93.3461745,71.478022 C93.6645346,70.6076923 93.9557846,69.810989 94.2228553,69.0805861 C94.4657469,69.7970696 94.7302531,70.5765568 95.0174733,71.4241758 C95.2541368,72.1223443 96.2942107,75.1860806 97.1862783,77.8080586 C94.5338884,77.8080586 92.5372689,77.8084249 91.0282642,77.810989 L91.0282642,77.810989 L91.0282642,77.810989 Z" id="Shape" sketch:type="MSShapeGroup"></path>
                <path d="M108.985384,3.27032967 L108.985384,13.7465201 L88.0007296,13.7465201 L88.0007296,45.7868132 L75.4898019,45.7868132 L75.4898019,13.7208791 L50.9954937,13.7904762 C48.042695,13.7904762 47.6470346,16.1421245 47.6470346,17.0432234 C47.6470346,18.1494505 48.3687484,19.2556777 52.3326792,24.2739927 C54.9044717,27.5340659 57.2674434,30.7868132 57.5788428,31.4974359 C59.278717,35.4095238 57.0806038,41.5047619 53.0763742,43.9809524 C50.2224906,45.743956 50.7101053,45.7871795 29.5169969,45.7871795 L26.076217,45.7871795 L3.26346541,45.7871795 L3.26346541,34.0179487 L39.1293459,34.0179487 L40.1881038,33.281685 C40.9024906,32.7835165 41.3164686,32.0985348 41.474,31.1608059 C41.6938113,29.8128205 41.5802421,29.6369963 37.151044,24.6479853 C31.9158711,18.7505495 31.3626792,17.6736264 31.6337799,13.9080586 C31.9415157,9.61135531 35.7735597,3.36959707 42.470478,3.36959707 L108.985384,3.27032967 L108.985384,3.27032967 Z M111.916201,0.335531136 L108.980621,0.33992674 L42.4657154,0.438827839 C38.6344041,0.438827839 35.0760252,2.09377289 32.4489135,5.0989011 C30.3189418,7.53553114 28.9209418,10.7505495 28.709923,13.6985348 C28.3534623,18.647619 29.4928176,20.4358974 34.9584261,26.5930403 C36.5447311,28.3794872 38.0530031,30.0787546 38.5563711,30.8003663 C38.5483113,30.829304 38.5409843,30.8479853 38.5365881,30.8586081 C38.5310928,30.8630037 38.5226667,30.8695971 38.5109434,30.8776557 L38.2098019,31.0871795 L3.26346541,31.0871795 L0.332647799,31.0871795 L0.332647799,34.0175824 L0.332647799,45.7868132 L0.332647799,48.7172161 L3.26346541,48.7172161 L26.076217,48.7172161 L27.8848978,48.7172161 L29.5169969,48.7172161 C39.9660943,48.7172161 45.1236006,48.707326 48.1621258,48.4846154 C51.6388082,48.2300366 52.7481226,47.6336996 54.4098962,46.6018315 L54.6172516,46.4732601 C59.8421667,43.2421245 62.5348553,35.547619 60.2671352,30.3289377 C59.5674025,28.7326007 55.1371053,23.0959707 54.6341038,22.4586081 C53.2434308,20.6978022 50.9478679,17.7919414 50.5844465,16.9509158 C50.593239,16.8802198 50.6104575,16.8069597 50.6287752,16.756044 C50.6892233,16.7406593 50.8049906,16.7201465 50.9954937,16.7201465 L72.5589843,16.6589744 L72.5589843,45.7860806 L72.5589843,48.7164835 L75.4898019,48.7164835 L88.0007296,48.7164835 L90.9315472,48.7164835 L90.9315472,45.7860806 L90.9315472,16.6761905 L108.985384,16.6761905 L111.916201,16.6761905 L111.916201,13.7457875 L111.916201,3.26959707 L111.916201,0.335531136 L111.916201,0.335531136 L111.916201,0.335531136 Z" id="Shape" sketch:type="MSShapeGroup"></path>
                <path d="M143.078119,3.61062271 L157.798151,46.1820513 L145.792789,46.1161172 L143.843796,39.7388278 L122.434539,39.6435897 L120.521814,45.7864469 L108.297008,45.7864469 L122.855478,3.61062271 L143.078119,3.61062271 L143.078119,3.61062271 Z M125.928807,30.578022 L140.509991,30.559707 C140.510357,30.559707 140.510357,30.5600733 140.510357,30.5600733 C140.560181,30.5600733 133.424373,9.60732601 133.376747,9.59267399 L133.376747,9.59267399 C133.324725,9.59084249 125.764314,30.578022 125.928807,30.578022 L125.928807,30.578022 Z M145.165961,0.68021978 L143.078119,0.68021978 L122.855478,0.68021978 L120.766904,0.68021978 L120.085489,2.65457875 L105.526653,44.8307692 L104.185071,48.7172161 L108.297374,48.7172161 L120.522547,48.7172161 L122.679995,48.7172161 L123.321112,46.6575092 L124.589057,42.5838828 L141.672792,42.659707 L142.991294,46.9725275 L143.621786,49.0344322 L145.778502,49.0465201 L157.783863,49.1124542 L161.922544,49.1351648 L160.570338,45.2245421 L145.850307,2.65311355 L145.165961,0.68021978 L145.165961,0.68021978 Z M130.000445,27.6424908 C130.904602,25.0684982 132.163388,21.5410256 133.302744,18.370696 C134.38275,21.5369963 135.577425,25.0538462 136.448976,27.6344322 L130.000445,27.6424908 L130.000445,27.6424908 Z" id="Shape" sketch:type="MSShapeGroup"></path>
                <path d="M184.420233,3.61062271 C193.916448,3.61062271 200.506758,3.74615385 201.774336,3.96593407 C204.705154,4.47509158 207.353881,6.03919414 209.339509,8.44212454 C211.416726,10.9549451 211.892984,12.1564103 212.164085,15.5996337 C212.552785,20.4604396 210.240736,24.6545788 205.679651,27.3761905 C204.349792,28.1710623 202.983665,28.943956 202.642591,29.0978022 C202.118708,29.3358974 202.188681,29.5630037 203.126176,30.6619048 C203.730291,31.3688645 204.778425,32.3761905 205.452513,32.9 L206.683456,33.856044 L229.426601,34.1820513 L229.649709,45.7864469 L215.705978,45.7864469 C204.920936,45.7864469 201.469531,45.6875458 200.458399,45.3468864 C198.945365,44.8340659 195.30419,41.7498168 187.903143,34.7095238 L182.620344,29.6838828 L182.67603,45.7864469 L169.105245,45.7864469 L169.105245,3.61062271 L184.420233,3.61062271 L184.420233,3.61062271 Z M182.420682,22.5739927 L189.627197,22.5739927 C196.639544,22.5739927 196.858623,22.5520147 197.859131,21.8010989 C199.647296,20.4604396 200.280352,19.0794872 200.090582,16.9586081 C199.896415,14.7717949 199.053805,13.6326007 196.939586,12.7168498 C195.748942,12.1967033 194.601893,12.1124542 188.98205,12.1124542 L182.420682,12.1124542 L182.420682,22.5739927 L182.420682,22.5739927 Z M184.420233,0.68021978 L169.106711,0.68021978 L166.175893,0.68021978 L166.175893,3.61062271 L166.175893,45.7864469 L166.175893,48.7168498 L169.106711,48.7168498 L182.677495,48.7168498 L185.618571,48.7168498 L185.608313,45.7761905 L185.576074,36.5395604 L185.88381,36.8322344 C195.037486,45.540293 197.737502,47.518315 199.518706,48.121978 C200.886299,48.5831502 203.175634,48.7168498 215.707077,48.7168498 L229.650808,48.7168498 L232.638044,48.7168498 L232.580893,45.7300366 L232.357785,34.125641 L232.303564,31.292674 L229.470197,31.2520147 L207.708143,30.940293 L207.252035,30.5860806 C207.106959,30.4728938 206.93111,30.3234432 206.743171,30.1542125 C206.906564,30.0575092 207.056036,29.9684982 207.185358,29.8915751 C212.681741,26.6120879 215.562368,21.3175824 215.087209,15.3666667 C214.771047,11.352381 214.054096,9.54395604 211.599536,6.57545788 C209.187473,3.65641026 205.876748,1.7043956 202.276972,1.07912088 C200.276689,0.732234432 190.230945,0.68021978 184.420233,0.68021978 L184.420233,0.68021978 L184.420233,0.68021978 Z M185.3515,15.0428571 L188.98205,15.0428571 C194.120873,15.0428571 195.138965,15.1282051 195.76616,15.4021978 C196.956805,15.9179487 197.077701,16.1681319 197.171121,17.2179487 C197.264907,18.2611722 197.135585,18.6809524 196.10064,19.4567766 C196.066569,19.4820513 196.040558,19.5018315 196.018943,19.5175824 C195.335697,19.643956 192.800173,19.643956 189.627197,19.643956 L185.351866,19.643956 L185.3515,15.0428571 L185.3515,15.0428571 Z" id="Shape" sketch:type="MSShapeGroup"></path>
            </g>
        </g>
    </g>
</svg>
