<?xml version="1.0" encoding="utf-8"?>
<!-- Generator: Adobe Illustrator 16.0.3, SVG Export Plug-In . SVG Version: 6.00 Build 0)  -->
<!DOCTYPE svg PUBLIC "-//W3C//DTD SVG 1.1//EN" "http://www.w3.org/Graphics/SVG/1.1/DTD/svg11.dtd">
<svg version="1.1" xmlns="http://www.w3.org/2000/svg" xmlns:xlink="http://www.w3.org/1999/xlink" x="0px" y="0px" width="205.5px"
	 height="234.5px" viewBox="0 0 205.5 234.5" style="enable-background:new 0 0 205.5 234.5;" xml:space="preserve">
<style type="text/css">
<![CDATA[
	.st0{fill:#7B7264;}
	.st1{fill:#AEA699;}
	.st2{fill:#E7E3E3;}
	.st3{fill:#B0A69B;}
	.st4{fill:#514530;}
	.st5{fill:#8B8271;}
	.st6{fill:#5A3833;}
	.st7{fill:#5D5139;}
	.st8{fill:#913106;}
	.st9{fill:url(#SVGID_1_);}
	.st10{fill:url(#SVGID_2_);}
	.st11{fill:#9B9387;}
	.st12{display:inline;}
	.st13{fill:#6D624F;}
	.st14{fill:#D5D4CF;}
	.st15{fill:#706553;}
	.st16{display:none;}
	.st17{fill:#726943;}
	.st18{fill:#746B5B;}
	.st19{fill:#40221C;}
	.st20{fill:#423825;}
]]>
</style>
<g id="Calque_1" class="st16">
	
		<image style="display:inline;overflow:visible;" width="800" height="600" xlink:href="../resources/x wing/149_x-wing.png"  transform="matrix(0.9033 0 0 0.9033 -258.8608 -135.5093)">
	</image>
</g>
<g id="Calque_6" class="st16">
	<rect x="-427.5" y="-161.5" class="st12" width="1020" height="639"/>
</g>
<g id="nez">
	<polygon class="st14" points="93.4,32.5 86.2,129.5 119,129.5 109.7,32.5 	"/>
	<ellipse class="st14" cx="101.6" cy="14" rx="5.6" ry="14"/>
	<polygon class="st14" points="106.7,8.5 109.7,32.5 93.4,32.5 96.4,8.5 	"/>
	<polygon class="st19" points="108.1,85.5 113.5,116.2 113.5,122 109.1,129.5 95.7,129.5 91.5,121.7 91.5,116.2 96.7,85.5 	"/>
	<polygon class="st6" points="108.1,85.5 110.5,117.6 110.5,120.3 109.1,125.5 95.7,125.5 94.5,120.3 94.5,117.6 96.7,85.5 	"/>
	<rect x="96.5" y="94.5" class="st19" width="12" height="23"/>
	
		<rect x="111.5" y="23.9" transform="matrix(0.9958 -9.169669e-002 9.169669e-002 0.9958 -6.5936 10.6068)" class="st8" width="1.3" height="106.2"/>
	
		<rect x="91.4" y="23.9" transform="matrix(0.9976 6.874847e-002 -6.874847e-002 0.9976 5.5154 -6.1446)" class="st8" width="1.3" height="106.2"/>
	<polygon class="st5" points="105.2,23.5 98,23.5 96.7,85.5 108.1,85.5 	"/>
</g>
<g id="left_engine">
	
		<linearGradient id="SVGID_1_" gradientUnits="userSpaceOnUse" x1="72.9751" y1="249.4932" x2="72.9751" y2="225.4932" gradientTransform="matrix(-1 0 0 -1 145.9502 459.9863)">
		<stop  offset="0.1" style="stop-color:#6BBFDC"/>
		<stop  offset="0.9" style="stop-color:#436874;stop-opacity:0"/>
	</linearGradient>
	<rect x="69.5" y="210.5" class="st9" width="7" height="24"/>
	
		<linearGradient id="SVGID_2_" gradientUnits="userSpaceOnUse" x1="12.9746" y1="249.4932" x2="12.9746" y2="225.4932" gradientTransform="matrix(-1 0 0 -1 145.9502 459.9863)">
		<stop  offset="0.1" style="stop-color:#6BBFDC"/>
		<stop  offset="0.9" style="stop-color:#436874;stop-opacity:0"/>
	</linearGradient>
	<rect x="129.5" y="210.5" class="st10" width="7" height="24"/>
	<path class="st11" d="M83.5,172.1c0,5.7-4.6,10.4-10.4,10.4h-0.3c-5.7,0-10.4-4.6-10.4-10.4v-20.3c0-5.7,4.6-10.4,10.4-10.4h0.3
		c5.7,0,10.4,4.6,10.4,10.4V172.1z"/>
	<rect x="63.5" y="153.5" class="st11" width="20" height="34"/>
	<polygon class="st1" points="35.5,186.3 49.5,189.7 49.5,150.5 35.5,150.5 	"/>
	<ellipse class="st2" cx="50" cy="174.4" rx="2.9" ry="6.3"/>
	<polygon class="st14" points="68.5,192.7 49.5,189.7 49.5,150.5 68.5,150.5 	"/>
	<rect x="5.4" y="178.5" transform="matrix(0.9776 0.2104 -0.2104 0.9776 38.0049 2.0059)" class="st0" width="8.3" height="2.2"/>
	<rect x="6.5" y="150.5" class="st0" width="6" height="30"/>
	<polygon class="st17" points="12.5,181.4 26.5,184.3 26.5,150.5 12.5,150.5 	"/>
	<polygon class="st1" points="26.5,184.3 40.5,187.5 40.5,150.5 26.5,150.5 	"/>
	<rect x="19.5" y="168.5" class="st8" width="2" height="14"/>
	<rect x="24.5" y="169.5" class="st8" width="2" height="14"/>
	<rect x="30.5" y="170.5" class="st8" width="2" height="14"/>
	<polygon class="st8" points="9.5,150.5 9.5,163.5 32.5,168 32.5,166.2 22.5,164.1 22.5,150.5 	"/>
	<rect x="23.5" y="151.5" class="st14" width="7" height="5"/>
	<rect x="23.5" y="158.5" class="st14" width="7" height="5"/>
	<rect x="35.5" y="149.5" class="st5" width="1" height="36"/>
	<rect x="21.5" y="147.5" class="st5" width="42" height="3"/>
	<rect x="66.5" y="149.5" class="st2" width="13" height="29"/>
	<rect x="63.5" y="149.5" class="st8" width="20" height="4"/>
	<rect x="69.5" y="181.5" class="st18" width="7" height="24"/>
	<rect x="68.5" y="194.5" class="st3" width="9" height="7"/>
	<rect x="68.5" y="185.5" class="st3" width="9" height="7"/>
	<rect x="68.5" y="176.5" class="st3" width="9" height="7"/>
	<polygon class="st11" points="53.4,164.2 64.5,164.5 64.5,176.5 53.5,176.5 	"/>
	<polygon class="st11" points="53.4,164.2 64.5,157 64.5,164.5 	"/>
	<rect x="54.5" y="164.5" class="st2" width="9" height="11"/>
	<polygon class="st2" points="54.5,164.5 63.5,158.8 63.5,164.5 	"/>
	<rect x="63.5" y="153.5" class="st11" width="3" height="25"/>
	<path class="st11" d="M143.5,151.9c0-5.7-4.6-10.4-10.4-10.4h-0.3c-5.7,0-10.4,4.6-10.4,10.4v20.3c0,5.7,4.6,10.4,10.4,10.4h0.3
		c5.7,0,10.4-4.6,10.4-10.4V151.9z"/>
	<rect x="122.5" y="153.5" class="st11" width="20" height="34"/>
	<polygon class="st1" points="170.5,186.3 156.5,189.7 156.5,150.5 170.5,150.5 	"/>
	<ellipse class="st2" cx="155.4" cy="174.4" rx="2.9" ry="6.3"/>
	<polygon class="st14" points="137.5,192.7 156.5,189.7 156.5,150.5 137.5,150.5 	"/>
	
		<rect x="191.8" y="178.5" transform="matrix(-0.9776 0.2104 -0.2104 -0.9776 425.211 314.0371)" class="st0" width="8.3" height="2.2"/>
	<rect x="193.5" y="150.5" class="st0" width="6" height="30"/>
	<polygon class="st17" points="193.5,181.4 179.5,184.3 179.5,150.5 193.5,150.5 	"/>
	<polygon class="st1" points="179.5,184.3 165.5,187.5 165.5,150.5 179.5,150.5 	"/>
	<rect x="184.5" y="168.5" class="st8" width="2" height="14"/>
	<rect x="179.5" y="169.5" class="st8" width="2" height="14"/>
	<rect x="173.5" y="170.5" class="st8" width="2" height="14"/>
	<polygon class="st8" points="196.5,150.5 196.5,163.5 173.5,168 173.5,166.2 183.5,164.1 183.5,150.5 	"/>
	<rect x="175.5" y="151.5" class="st14" width="7" height="5"/>
	<rect x="175.5" y="158.5" class="st14" width="7" height="5"/>
	<rect x="169.5" y="149.5" class="st5" width="1" height="36"/>
	<rect x="142.5" y="147.5" class="st5" width="42" height="3"/>
	<rect x="126.5" y="149.5" class="st2" width="13" height="29"/>
	<rect x="122.5" y="149.5" class="st8" width="20" height="4"/>
	<rect x="129.5" y="181.5" class="st18" width="7" height="24"/>
	<rect x="128.5" y="194.5" class="st3" width="9" height="7"/>
	<rect x="68.5" y="203.5" class="st3" width="9" height="7"/>
	<rect x="128.5" y="203.5" class="st3" width="9" height="7"/>
	<rect x="128.5" y="185.5" class="st3" width="9" height="7"/>
	<rect x="128.5" y="176.5" class="st3" width="9" height="7"/>
	<polygon class="st11" points="152.3,164.2 141.5,164.5 141.5,176.5 152,176.5 	"/>
	<polygon class="st11" points="152.6,164.2 141.5,157 141.5,164.5 	"/>
	<rect x="142.5" y="164.5" class="st2" width="9" height="11"/>
	<polygon class="st2" points="151,164.5 142.5,158.8 142.5,164.5 	"/>
	<rect x="139.5" y="153.5" class="st11" width="3" height="25"/>
</g>
<g id="tete">
	<polygon class="st14" points="86.2,129.5 83.5,150 83.5,188.7 90.7,198.5 115.5,198.5 122.5,188.5 122.5,149.9 119,129.5 	"/>
	<polygon class="st5" points="91.6,193.5 113.5,193.5 113.5,162.5 91.6,162.5 	"/>
	<polygon class="st5" points="95.7,129.5 91.6,162.5 113.5,162.5 109.1,129.5 	"/>
	<path class="st4" d="M106.5,187.5c0,2.2-1.8,4-4,4l0,0c-2.2,0-4-1.8-4-4v-49c0-2.2,1.8-4,4-4l0,0c2.2,0,4,1.8,4,4V187.5z"/>
	<circle class="st13" cx="102.5" cy="138.6" r="3.9"/>
	<circle class="st7" cx="102.5" cy="146.9" r="3.9"/>
	<circle class="st7" cx="102.5" cy="168.9" r="4.8"/>
	<rect x="98.5" y="187.5" class="st4" width="8" height="6"/>
	<rect x="99.5" y="178.5" class="st20" width="6" height="9"/>
</g>
<g id="left_wing">
	<rect x="1.5" y="145.5" class="st15" width="6" height="4"/>
	<rect x="0.5" y="143.5" class="st5" width="8" height="3"/>
	<rect x="0.5" y="148.5" class="st5" width="8" height="3"/>
	<rect x="15.5" y="144.5" class="st15" width="6" height="4"/>
	<rect x="14.5" y="142.5" class="st5" width="8" height="3"/>
	<rect x="14.5" y="147.5" class="st5" width="8" height="3"/>
	<rect x="16.5" y="91.5" class="st14" width="4" height="51"/>
	<rect x="2.5" y="82.5" class="st14" width="4" height="61"/>
	<rect x="3.5" y="65.5" class="st14" width="2" height="17"/>
	<rect x="1.5" y="79.5" transform="matrix(0.707 -0.7072 0.7072 0.707 -57.2628 25.7755)" class="st14" width="2" height="5"/>
	<rect x="5.5" y="79.5" transform="matrix(0.7072 0.707 -0.707 0.7072 59.8634 19.4265)" class="st14" width="2" height="5"/>
	<rect x="17.5" y="74.5" class="st14" width="2" height="17"/>
	<rect x="15.5" y="88.5" transform="matrix(0.707 -0.7072 0.7072 0.707 -59.5256 38.3139)" class="st14" width="2" height="5"/>
	<rect x="19.5" y="88.5" transform="matrix(0.7072 0.707 -0.707 0.7072 70.3251 12.1637)" class="st14" width="2" height="5"/>
	<rect x="1.5" y="151.5" class="st14" width="6" height="29"/>
	<rect x="2.5" y="180.5" class="st5" width="4" height="5"/>
	<rect x="198.5" y="145.5" class="st15" width="6" height="4"/>
	<rect x="197.5" y="143.5" class="st5" width="8" height="3"/>
	<rect x="197.5" y="148.5" class="st5" width="8" height="3"/>
	<rect x="184.5" y="144.5" class="st15" width="6" height="4"/>
	<rect x="183.5" y="142.5" class="st5" width="8" height="3"/>
	<rect x="183.5" y="147.5" class="st5" width="8" height="3"/>
	<rect x="185.5" y="91.5" class="st14" width="4" height="51"/>
	<rect x="199.5" y="82.5" class="st14" width="4" height="61"/>
	<rect x="200.5" y="65.5" class="st14" width="2" height="17"/>
	<rect x="202" y="79.5" transform="matrix(-0.707 -0.7072 0.7072 -0.707 288.5308 283.5289)" class="st14" width="2" height="5"/>
	<rect x="198" y="79.5" transform="matrix(-0.7074 0.7069 -0.7069 -0.7074 397.7194 -0.6755)" class="st14" width="2" height="5"/>
	<rect x="186.5" y="74.5" class="st14" width="2" height="17"/>
	<rect x="188" y="88.5" transform="matrix(-0.707 -0.7072 0.7072 -0.707 258.2679 288.9905)" class="st14" width="2" height="5"/>
	<rect x="184" y="88.5" transform="matrix(-0.7074 0.7069 -0.7069 -0.7074 380.1782 24.5868)" class="st14" width="2" height="5"/>
	<rect x="198.5" y="151.5" class="st14" width="6" height="29"/>
	<rect x="199.5" y="180.5" class="st5" width="4" height="5"/>
</g>
</svg>
