<svg width="233" height="100" viewBox="0 0 233 100" xmlns="http://www.w3.org/2000/svg"><g fill="#FFE81F" fill-rule="evenodd"><path d="M43.86 54.288l3.175 9.327c1.72 5.043 3.253 9.076 3.453 9.076.003 0 .006 0 .01-.002.22-.195 6.436-18.246 6.436-18.246h12.05l-14.538 42.35H46.07s-8.938-25.813-8.9-25.91l-9.332 25.586h-8.29L5.193 54.288l11.99.008s6.57 18.616 6.656 18.616l6.555-18.624H43.86zM1.1 51.355l1.32 3.877 14.353 42.18.676 1.986H29.887l.704-1.927 6.48-17.764a12670.717 12670.717 0 0 0 6.23 18.046l.683 1.97H56.54l.678-1.978 14.537-42.35 1.333-3.883H54.843l-.68 1.978c-1.09 3.163-2.536 7.337-3.772 10.87-.186-.536-.38-1.1-.58-1.69l-3.177-9.325-.676-1.985H28.32l-.69 1.957-3.83 10.882c-1.264-3.556-2.73-7.7-3.85-10.876l-.69-1.953h-2.073l-11.99-.01-4.097-.002zM229.43 54.124l-.026 11.1s-11.96-.04-18.04-.04c-2.022 0-3.394.005-3.46.017-1.047.192-1.714 2.42-1.417 3.397.146.495 1.242 2.11 2.43 3.593 1.182 1.484 3.128 3.913 4.315 5.396 3.047 3.802 3.465 4.553 3.747 6.736.457 3.546-1.22 7.385-4.335 9.916-3.12 2.54-2.983 2.557-26.15 2.557h-1.018c-14.09-.004-21.542-.12-22.626-.363-1.926-.436-4.997-2.94-13.11-10.725-2.92-2.797-5.61-5.246-5.748-5.247-.003 0-.005.002-.005.006l-.096 16.33-13.15-.06-.082-42.116H159.99c8.84.32 14.822 9.124 13.63 14.74-.27 1.274-.96 3.12-1.53 4.102-1.177 2.015-4.17 4.6-6.6 5.71-.896.407-1.63.88-1.63 1.048 0 .627 2.954 3.535 4.06 3.996.945.396 3.697.484 15.83.484h3.886c12.197 0 11.584-.088 12.526-2.103.66-1.402.158-2.24-4.484-7.468-5.88-5.852-5.264-8.654-5.305-10.723-.083-2.48 1.87-10.282 12.02-10.282h27.038zm-78.79 19.458c5.63 0 6.773-.088 7.972-.608 4.044-1.76 4.26-6.952.38-9.257-.85-.506-1.94-.59-8.044-.623l-7.063-.037c.058.055-.023 10.1-.023 10.1s1.77.425 6.778.425zm81.73-22.39h-29.977c-5.873 0-9.347 2.32-11.227 4.264-3.058 3.162-3.778 7.144-3.723 9.022.003.156 0 .317 0 .484-.027 3.05.422 6.505 6.103 12.178 1.123 1.264 3 3.384 3.71 4.438-1.55.19-5.487.19-9.62.19h-3.885c-7.292 0-13.44-.02-14.7-.27a7.223 7.223 0 0 1-.697-.55c2.52-1.55 5.067-3.954 6.267-6.01.728-1.25 1.53-3.386 1.867-4.97.748-3.526-.485-7.78-3.297-11.38-3.28-4.202-8.055-6.716-13.096-6.898l-.053-.002h-32.319l.006 2.937.08 42.116.007 2.913 2.912.013 13.152.058 2.927.013.017-2.926.058-9.78c.268.254.546.518.83.792 8.876 8.512 11.856 10.87 14.494 11.468.725.16 1.925.43 23.272.435h1.018c11.557 0 17.358 0 20.81-.333 3.95-.382 5.223-1.28 7.128-2.83l.064-.052c3.914-3.182 5.98-7.996 5.39-12.564-.383-2.97-1.17-4.205-4.367-8.193l-.95-1.187c-1.114-1.392-2.46-3.072-3.362-4.203a30.13 30.13 0 0 1-1.643-2.247l1.8-.002c6.008 0 17.91.04 18.03.04l2.934.01.008-2.933.027-11.1.01-2.937zM146.81 70.545l.014-2.402.008-2.14 4.098.023c2.355.012 5.9.032 6.59.228.882.535 1.374 1.362 1.32 2.22-.03.463-.25 1.314-1.4 1.813-.64.278-1.662.365-6.802.365a60.8 60.8 0 0 1-3.828-.106zM104.01 53.95l14.76 42.463-12.027.055-1.996-6.378-21.505-.172-1.898 6.385-11.906-.125L84.01 53.97l20-.02zm-9.672 6.227c-.03.122-1.884 5.208-3.745 10.294-1.875 5.13-3.757 10.258-3.783 10.298.05-.015 6.71-.03 10.98-.03 1.996 0 3.47.004 3.497.01v.003c-.075-.195-6.927-20.325-6.95-20.573l.002-.002c-.002 0-.002 0-.002.002zm11.756-9.158h-2.086l-20 .02h-2.086l-.68 1.974-14.574 42.21-1.328 3.843 4.068.042 11.906.124 2.21.023.63-2.118 1.27-4.273 17.165.137 1.357 4.34.647 2.066 2.164-.01 12.027-.055 4.1-.02-1.345-3.872-14.76-42.462-.686-1.97zM91.028 77.81c.555-1.51 1.303-3.556 2.318-6.332.32-.87.61-1.667.877-2.397l.794 2.344c.237.698 1.277 3.762 2.17 6.384-2.653 0-4.65 0-6.16.003zM108.985 3.27v10.477H88v32.04H75.49V13.72l-24.495.07c-2.952 0-3.348 2.352-3.348 3.253 0 1.106.722 2.213 4.686 7.23 2.57 3.26 4.934 6.514 5.246 7.224 1.7 3.913-.5 10.008-4.504 12.484-2.854 1.764-2.366 1.807-23.56 1.807H3.264v-11.77H39.13l1.058-.735c.714-.498 1.128-1.183 1.286-2.12.22-1.35.106-1.525-4.323-6.514-5.234-5.897-5.787-6.974-5.516-10.74C31.942 9.61 35.774 3.37 42.47 3.37l66.515-.1zm2.93-2.934l-2.934.004-66.514.1c-3.832 0-7.39 1.654-10.017 4.66-2.13 2.436-3.53 5.65-3.74 8.6-.357 4.948.783 6.736 6.248 12.893 1.587 1.786 3.095 3.486 3.598 4.207a.495.495 0 0 1-.02.06.428.428 0 0 1-.025.018l-.3.21H.333v17.63H29.516c10.45 0 15.608-.01 18.646-.233 3.477-.255 4.586-.85 6.248-1.883l.207-.13c5.225-3.23 7.918-10.924 5.65-16.143-.7-1.597-5.13-7.234-5.633-7.87-1.39-1.762-3.686-4.668-4.05-5.51a.972.972 0 0 1 .045-.194c.06-.015.175-.036.365-.036l21.564-.06V48.715H90.93v-32.04h20.983V.336zM143.078 3.61l14.72 42.572-12.005-.066-1.95-6.377-21.408-.096-1.913 6.142h-12.225L122.855 3.61h20.223zm-17.15 26.968l14.582-.018c.05 0-7.086-20.953-7.133-20.967-.052-.002-7.613 20.985-7.448 20.985zM145.167.68h-24.399l-.682 1.975-14.558 42.176-1.342 3.887h18.495l.64-2.06 1.27-4.073 17.083.076 1.318 4.313.632 2.06 2.157.014 12.004.065 4.14.023-1.354-3.91-14.72-42.572-.684-1.973zM130 27.642c.905-2.574 2.163-6.1 3.303-9.27 1.08 3.165 2.274 6.682 3.146 9.262l-6.45.008zM184.42 3.61c9.496 0 16.087.136 17.354.356 2.93.51 5.58 2.073 7.566 4.476 2.077 2.513 2.553 3.714 2.824 7.158.39 4.86-1.923 9.055-6.484 11.776-1.33.795-2.696 1.568-3.037 1.722-.524.238-.454.465.483 1.564.604.707 1.652 1.714 2.327 2.238l1.23.956 22.744.326.223 11.604h-13.944c-10.785 0-14.236-.098-15.248-.44-1.513-.512-5.154-3.596-12.555-10.636l-5.283-5.026.056 16.102h-13.57V3.61h15.314zm-2 18.964h7.207c7.013 0 7.232-.022 8.232-.773 1.787-1.34 2.42-2.72 2.23-4.84-.194-2.188-1.036-3.327-3.15-4.243-1.19-.52-2.338-.605-7.958-.605h-6.56v10.462zm2-21.894H166.177v48.036h19.442l-.012-2.94-.032-9.236.308.292c9.153 8.708 11.854 10.686 13.635 11.29 1.366.46 3.656.595 16.187.595H232.64l-.057-2.987-.222-11.604-.054-2.833-2.834-.04-21.762-.313-.456-.354a9.846 9.846 0 0 1-.51-.432c.165-.096.314-.186.443-.262 5.497-3.28 8.377-8.574 7.902-14.525-.316-4.015-1.033-5.823-3.487-8.792-2.413-2.92-5.723-4.87-9.323-5.496-2-.348-12.046-.4-17.857-.4zm.93 14.363h3.632c5.14 0 6.157.085 6.784.36 1.19.515 1.312.765 1.405 1.815.095 1.043-.034 1.463-1.07 2.24l-.08.06c-.684.126-3.22.126-6.393.126h-4.275v-4.6z"/></g></svg>