<svg id="Layer_1" xmlns="http://www.w3.org/2000/svg" viewBox="0 0 181.4 80.9"><style>.st0{fill:#FFF}</style><path class="st0" d="M0 25.3V38h37c4.3 0 9.8-4 9.8-10.6 0-2.6 1-4.4-2.1-7.9L40 13.9c-2.7-2.5.3-2.5 2.6-2.5h15.6V38h12.4V11.4h16.7V0H33.2c-6.6 0-9.8 6.3-9.6 9.6.2 3.3.8 7.4 6.3 12.4 5 4.5-2.5 3.3-3.2 3.3H0zM114.7 0h-20L83.5 37.9H96l2-5.3h13.2l2 5.3h12.2L114.7 0zm-13.9 23.5l4.3-13.9 4 13.9h-8.3zM164.8 25.3c-4.8 0-4.8-1.8-4.8-1.8 4.1 0 7.8-6 7.8-12.1S161.8 0 157 0h-27v37.9h13.7V25.3s5.8 6.8 8.9 9.6c3 2.8 3.3 3 7.4 3h21.5V25.3h-16.7zm-12.4-8.9h-8.7V9.6h8.7c4 0 4.6 6.8 0 6.8zM0 42.8h14l3.5 12.6 3.3-12.6h14.7l3.8 12.6 3.8-12.6h12.1L44.1 80.7H33l-4.9-18-5.5 18H11.2zM83.9 43h-20L52.7 80.9h12.5l2-5.3h13.2l2 5.3h12.2L83.9 43zM70 66.5l4.3-13.9 4 13.9H70zM165 54.1c-2.3 0-4.8.3-2 2.8l4.7 5.6c3.1 3.5 3.1 5 3.1 7.6 0 6.6-6.5 10.6-10.8 10.6l-29.9.2c-4.1 0-4.4-.3-7.4-3-3-2.8-8.9-9.6-8.9-9.6v12.6h-13.7V43H127c4.8 0 10.8 5.2 10.8 11.4 0 6.1-3.7 12.1-7.8 12.1 0 0 1.8 1.8 4.8 1.8h14.7c.7 0 8.2 1.2 3.2-3.3-5.5-5-6.1-9.1-6.3-12.4-.2-3.3 2.7-9.9 9.2-9.9h25.6v11.4H165zm-42.5 5.3h-8.7v-6.8h8.7c4 0 4.6 6.8 0 6.8z"/></svg>