<svg xmlns="http://www.w3.org/2000/svg" xmlns:xlink="http://www.w3.org/1999/xlink" width="205.5" height="234.5" viewBox="0 0 205.5 234.5"><style>.st0{fill:#7b7264}.st1{fill:#aea699}.st2{fill:#e7e3e3}.st3{fill:#b0a69b}.st4{fill:#514530}.st5{fill:#8b8271}.st6{fill:#5a3833}.st7{fill:#5d5139}.st8{fill:#913106}.st9{fill:url(#SVGID_1_)}.st10{fill:url(#SVGID_2_)}.st11{fill:#9b9387}.st12{display:inline}.st13{fill:#6d624f}.st14{fill:#d5d4cf}.st15{fill:#706553}.st16{display:none}.st17{fill:#726943}.st18{fill:#746b5b}.st19{fill:#40221c}.st20{fill:#423825}</style><image width="800" height="600" xlink:href="../resources/x wing/149_x-wing.png" transform="translate(-258.86 -135.51) scale(.9033)" overflow="visible" id="Calque_1" class="st16"/><path class="st16 st12" d="M-427.5-161.5h1020v639h-1020z" id="Calque_6"/><g id="nez"><path class="st14" d="M93.4 32.5l-7.2 97H119l-9.3-97z"/><ellipse class="st14" cx="101.6" cy="14" rx="5.6" ry="14"/><path class="st14" d="M106.7 8.5l3 24H93.4l3-24z"/><path class="st19" d="M108.1 85.5l5.4 30.7v5.8l-4.4 7.5H95.7l-4.2-7.8v-5.5l5.2-30.7z"/><path class="st6" d="M108.1 85.5l2.4 32.1v2.7l-1.4 5.2H95.7l-1.2-5.2v-2.7l2.2-32.1z"/><path class="st19" d="M96.5 94.5h12v23h-12z"/><path class="st8" d="M106.63 24.182l1.294-.12 9.738 105.755-1.294.12zM95.053 23.982l1.297.09-7.3 105.944-1.298-.09z"/><path class="st5" d="M105.2 23.5H98l-1.3 62h11.4z"/></g><g id="left_engine"><linearGradient id="SVGID_1_" gradientUnits="userSpaceOnUse" x1="72.975" y1="249.493" x2="72.975" y2="225.493" gradientTransform="rotate(180 72.975 229.993)"><stop offset=".1" stop-color="#6bbfdc"/><stop offset=".9" stop-color="#436874" stop-opacity="0"/></linearGradient><path class="st9" d="M69.5 210.5h7v24h-7z"/><linearGradient id="SVGID_2_" gradientUnits="userSpaceOnUse" x1="12.975" y1="249.493" x2="12.975" y2="225.493" gradientTransform="rotate(180 72.975 229.993)"><stop offset=".1" stop-color="#6bbfdc"/><stop offset=".9" stop-color="#436874" stop-opacity="0"/></linearGradient><path class="st10" d="M129.5 210.5h7v24h-7z"/><path class="st11" d="M83.5 172.1c0 5.7-4.6 10.4-10.4 10.4h-.3c-5.7 0-10.4-4.6-10.4-10.4v-20.3c0-5.7 4.6-10.4 10.4-10.4h.3c5.7 0 10.4 4.6 10.4 10.4v20.3z"/><path class="st11" d="M63.5 153.5h20v34h-20z"/><path class="st1" d="M35.5 186.3l14 3.4v-39.2h-14z"/><ellipse class="st2" cx="50" cy="174.4" rx="2.9" ry="6.3"/><path class="st14" d="M68.5 192.7l-19-3v-39.2h19z"/><path class="st0" d="M5.728 177.644l8.114 1.746-.463 2.15-8.115-1.746z"/><path class="st0" d="M6.5 150.5h6v30h-6z"/><path class="st17" d="M12.5 181.4l14 2.9v-33.8h-14z"/><path class="st1" d="M26.5 184.3l14 3.2v-37h-14z"/><path class="st8" d="M19.5 168.5h2v14h-2zM24.5 169.5h2v14h-2zM30.5 170.5h2v14h-2zM9.5 150.5v13l23 4.5v-1.8l-10-2.1v-13.6z"/><path class="st14" d="M23.5 151.5h7v5h-7zM23.5 158.5h7v5h-7z"/><path class="st5" d="M35.5 149.5h1v36h-1z"/><path class="st5" d="M21.5 147.5h42v3h-42z"/><path class="st2" d="M66.5 149.5h13v29h-13z"/><path class="st8" d="M63.5 149.5h20v4h-20z"/><path class="st18" d="M69.5 181.5h7v24h-7z"/><path class="st3" d="M68.5 194.5h9v7h-9zM68.5 185.5h9v7h-9zM68.5 176.5h9v7h-9z"/><path class="st11" d="M53.4 164.2l11.1.3v12h-11z"/><path class="st11" d="M53.4 164.2l11.1-7.2v7.5z"/><path class="st2" d="M54.5 164.5h9v11h-9zM54.5 164.5l9-5.7v5.7z"/><path class="st11" d="M63.5 153.5h3v25h-3zM143.5 151.9c0-5.7-4.6-10.4-10.4-10.4h-.3c-5.7 0-10.4 4.6-10.4 10.4v20.3c0 5.7 4.6 10.4 10.4 10.4h.3c5.7 0 10.4-4.6 10.4-10.4v-20.3z"/><path class="st11" d="M122.5 153.5h20v34h-20z"/><path class="st1" d="M170.5 186.3l-14 3.4v-39.2h14z"/><ellipse class="st2" cx="155.4" cy="174.4" rx="2.9" ry="6.3"/><path class="st14" d="M137.5 192.7l19-3v-39.2h-19z"/><path class="st0" d="M200.15 179.89l-8.113 1.747-.463-2.15 8.114-1.747z"/><path class="st0" d="M193.5 150.5h6v30h-6z"/><path class="st17" d="M193.5 181.4l-14 2.9v-33.8h14z"/><path class="st1" d="M179.5 184.3l-14 3.2v-37h14z"/><path class="st8" d="M184.5 168.5h2v14h-2zM179.5 169.5h2v14h-2zM173.5 170.5h2v14h-2zM196.5 150.5v13l-23 4.5v-1.8l10-2.1v-13.6z"/><path class="st14" d="M175.5 151.5h7v5h-7zM175.5 158.5h7v5h-7z"/><path class="st5" d="M169.5 149.5h1v36h-1z"/><path class="st5" d="M142.5 147.5h42v3h-42z"/><path class="st2" d="M126.5 149.5h13v29h-13z"/><path class="st8" d="M122.5 149.5h20v4h-20z"/><path class="st18" d="M129.5 181.5h7v24h-7z"/><path class="st3" d="M128.5 194.5h9v7h-9zM68.5 203.5h9v7h-9zM128.5 203.5h9v7h-9zM128.5 185.5h9v7h-9zM128.5 176.5h9v7h-9z"/><path class="st11" d="M152.3 164.2l-10.8.3v12H152z"/><path class="st11" d="M152.6 164.2l-11.1-7.2v7.5z"/><path class="st2" d="M142.5 164.5h9v11h-9zM151 164.5l-8.5-5.7v5.7z"/><path class="st11" d="M139.5 153.5h3v25h-3z"/></g><g id="tete"><path class="st14" d="M86.2 129.5L83.5 150v38.7l7.2 9.8h24.8l7-10v-38.6l-3.5-20.4z"/><path class="st5" d="M91.6 193.5h21.9v-31H91.6zM95.7 129.5l-4.1 33h21.9l-4.4-33z"/><path class="st4" d="M106.5 187.5c0 2.2-1.8 4-4 4s-4-1.8-4-4v-49c0-2.2 1.8-4 4-4s4 1.8 4 4v49z"/><circle class="st13" cx="102.5" cy="138.6" r="3.9"/><circle class="st7" cx="102.5" cy="146.9" r="3.9"/><circle class="st7" cx="102.5" cy="168.9" r="4.8"/><path class="st4" d="M98.5 187.5h8v6h-8z"/><path class="st20" d="M99.5 178.5h6v9h-6z"/></g><g id="left_wing"><path class="st15" d="M1.5 145.5h6v4h-6z"/><path class="st5" d="M.5 143.5h8v3h-8zM.5 148.5h8v3h-8z"/><path class="st15" d="M15.5 144.5h6v4h-6z"/><path class="st5" d="M14.5 142.5h8v3h-8zM14.5 147.5h8v3h-8z"/><path class="st14" d="M16.5 91.5h4v51h-4zM2.5 82.5h4v61h-4zM3.5 65.5h2v17h-2z"/><path class="st14" d="M.02 80.92l1.414-1.413 3.536 3.535-1.414 1.414z"/><path class="st14" d="M7.547 79.537L8.96 80.95l-3.534 3.537-1.414-1.414zM17.5 74.5h2v17h-2z"/><path class="st14" d="M14.02 89.922l1.414-1.415 3.536 3.535-1.414 1.415z"/><path class="st14" d="M21.546 88.537l1.414 1.414-3.535 3.537-1.414-1.414zM1.5 151.5h6v29h-6z"/><path class="st5" d="M2.5 180.5h4v5h-4z"/><path class="st15" d="M198.5 145.5h6v4h-6z"/><path class="st5" d="M197.5 143.5h8v3h-8zM197.5 148.5h8v3h-8z"/><path class="st15" d="M184.5 144.5h6v4h-6z"/><path class="st5" d="M183.5 142.5h8v3h-8zM183.5 147.5h8v3h-8z"/><path class="st14" d="M185.5 91.5h4v51h-4zM199.5 82.5h4v61h-4zM200.5 65.5h2v17h-2z"/><path class="st14" d="M201.94 84.468l-1.415-1.414 3.536-3.535 1.415 1.413z"/><path class="st14" d="M201.456 83.052l-1.415 1.414-3.534-3.537 1.415-1.415zM186.5 74.5h2v17h-2z"/><path class="st14" d="M187.94 93.467l-1.415-1.414 3.536-3.535 1.415 1.414z"/><path class="st14" d="M187.456 92.052l-1.415 1.413-3.533-3.537 1.414-1.414zM198.5 151.5h6v29h-6z"/><path class="st5" d="M199.5 180.5h4v5h-4z"/></g></svg>